<svg height="473pt" fill="#fff" viewBox="0 -6 473.585 473" width="473pt" xmlns="http://www.w3.org/2000/svg"><path d="m201.140625 35.292969c-21.769531-.007813-39.425781 17.636719-39.433594 39.410156-.003906 21.773437 17.640625 39.425781 39.410157 39.433594.007812 0 .015624.15625.023437.15625h.039063c21.816406-.007813 39.496093-17.695313 39.492187-39.511719-.007813-21.816406-17.695313-39.496094-39.511719-39.488281zm0 0"/><path d="m329.742188 79.292969h.613281c10.355469-.066407 20.25-4.300781 27.445312-11.746094 7.273438-7.394531 11.304688-17.382813 11.199219-27.753906.015625-21.71875-17.515625-39.371094-39.234375-39.5h-.015625c-21.816406-.007813-39.507812 17.671875-39.511719 39.488281-.007812 21.816406 17.671875 39.503906 39.488281 39.511719zm0 0"/><path d="m72.53125.292969c-21.777344-.007813-39.4375 17.644531-39.445312 39.421875-.003907 21.777344 17.644531 39.4375 39.421874 39.445312.007813 0 .015626-.054687.023438-.054687 21.578125 0 38.800781-17.363281 39.246094-39.410157-.03125-21.683593-17.546875-39.277343-39.226563-39.402343zm0 0"/><path d="m350.117188 203.542969c17.8125-.019531 35.449218 3.507812 51.882812 10.375v-34.875c.109375-16.039063-6.171875-31.460938-17.457031-42.859375-11.28125-11.398438-26.640625-17.835938-42.679688-17.890625h-23.074219c-26.183593.1875-49.425781 16.824219-58.046874 41.550781 1.117187.992188 2.152343 2.039062 3.210937 3.105469 13.585937 13.625 21.164063 32.113281 21.046875 51.351562v6.015625c20-10.683594 41.507812-16.773437 65.117188-16.773437zm0 0"/><path d="m141.335938 159.953125c-8.667969-24.636719-31.746094-41.660156-57.378907-41.660156h-22.855469c-33.554687-.0625-60.855468 26.988281-61.101562 60.542969v66.457031h117v-31.230469c-.03125-19.269531 7.660156-37.746094 21.351562-51.300781.96875-.964844 1.972657-1.902344 2.984376-2.808594zm0 0"/><path d="m350.414062 215.542969c-68.023437 0-123.167968 55.144531-123.167968 123.167969 0 68.027343 55.144531 123.171874 123.167968 123.171874 68.027344 0 123.171876-55.144531 123.171876-123.171874-.078126-67.992188-55.179688-123.09375-123.171876-123.167969zm74.585938 166.105469c.019531 1.539062-.597656 3.015624-1.707031 4.085937s-2.609375 1.632813-4.148438 1.558594h-9.144531v9.6875c.027344 9.988281-7.976562 18.148437-17.964844 18.3125h-15.234375c-2.683593 6.347656-8.878906 10.496093-15.769531 10.5625-9.347656-.070313-16.890625-7.671875-16.890625-17.019531 0-9.347657 7.542969-16.949219 16.890625-17.019532 7.269531-.089844 13.753906 4.5625 16 11.476563h15c3.363281-.152344 6.003906-2.945313 5.96875-6.3125v-9.6875h-6.25c-1.527344.070312-3.015625-.5-4.105469-1.570313-1.089843-1.070312-1.6875-2.546875-1.644531-4.074218v-48.960938c0-3.3125 2.4375-6.394531 5.75-6.394531h9.25v-8c0-25.714844-22.242188-46.78125-49.539062-46.957031-27.234376 0-49.460938 21.066406-49.460938 46.957031v8h8.410156c3.3125 0 5.589844 3.082031 5.589844 6.394531v48.960938c.078125 1.507812-.480469 2.984374-1.546875 4.058593-1.0625 1.074219-2.53125 1.648438-4.042969 1.585938h-29.488281c-1.542969.078125-3.054687-.484375-4.171875-1.550781-1.121094-1.070313-1.753906-2.550782-1.75-4.09375v-48.960938c0-3.3125 2.609375-6.394531 5.921875-6.394531h9.078125v-8c0-32.507813 27.609375-58.957031 61.5-58.957031 33.90625.222656 61.5 26.667968 61.5 58.957031v8h6.144531c3.3125 0 5.855469 3.082031 5.855469 6.394531zm0 0"/><path d="m366.035156 408.660156c0 2.761719-2.238281 5-5 5-2.761718 0-5-2.238281-5-5 0-2.761718 2.238282-5 5-5 2.761719 0 5 2.238282 5 5zm0 0"/><path d="m273 227.792969v-13.5c.109375-16.105469-6.203125-31.59375-17.542969-43.03125-11.242187-11.464844-26.617187-17.9375-42.675781-17.96875h-23.179688c-33.484374.144531-60.5625 27.308593-60.601562 60.789062v66.210938h99.484375c10.132813-21 25.453125-39.070313 44.515625-52.5zm0 0"/><path d="m398 338.292969h15v37h-15zm0 0"/><path d="m287 338.292969h17v37h-17zm0 0"/></svg>