<svg id="Layer_2" data-name="Layer 2" xmlns="http://www.w3.org/2000/svg" viewBox="0 0 1100.5 1578.1"><defs><style>.cls-1,.cls-2{fill:#fff;}.cls-1{stroke:#78dd76;}.cls-1,.cls-2,.cls-3,.cls-4,.cls-5,.cls-6,.cls-7{stroke-miterlimit:10;}.cls-2,.cls-3,.cls-4{stroke:#39b54a;stroke-width:0.5px;}.cls-3{fill:#cecece;}.cls-4{fill:#d8d8d8;}.cls-5{fill:#c1c1c1;}.cls-5,.cls-6,.cls-7{stroke:#fff;}.cls-6{font-size:469.92px;}.cls-6,.cls-7{fill:#006837;font-family:LucidaHandwriting-Italic, Lucida Handwriting;font-style:italic;}.cls-7{font-size:183.57px;}</style></defs><title>e-kassa</title><path class="cls-1" d="M1195,624.29c.71,20.46,30.45,19.13,29.55-1.63-3.22-73.86,4.81-144.11-33.32-268.54-15.92-51.94-76.27-196.69-228.8-182.64C835.47,183.17,757.67,318,784.67,666.2c2.11,27.17,28.25,18.12,31.66,11.63a15.67,15.67,0,0,0,1.45-10c-8.45-48.25-53-450.1,146.61-466.25C1190.36,183.32,1192.77,560.56,1195,624.29Z" transform="translate(-473.88 -170.02)"/><polygon class="cls-2" points="187.45 386.81 1040.44 284.45 1100.23 1424.44 211.54 1576.98 187.45 386.81"/><polygon class="cls-2" points="0.8 1470.6 211.54 1576.98 147.31 1446.52 0.8 1470.6"/><polygon class="cls-3" points="159.35 1013 147.31 1446.52 211.54 1576.98 187.45 386.81 159.35 1013"/><path class="cls-4" d="M1379.85,380.21,499.31,480.5a.06.06,0,0,0,0,.12l186.1,18-24.08,58.2,852.8-102.34a0,0,0,0,0,0-.05l-164.39-26.06Z" transform="translate(-473.88 -170.02)"/><polygon class="cls-2" points="231.61 320.57 211.54 370.75 984.24 284.45 857.8 264.38 885.9 222.23 83.08 310.54 231.61 320.57"/><polygon class="cls-2" points="24.88 310.54 211.54 328.6 187.45 386.81 147.31 1446.52 0.8 1470.6 24.88 310.54"/><path class="cls-2" d="M1389.88,434.4l-10-54a.11.11,0,0,0-.2,0l-29.88,47.81a.11.11,0,0,0,.08.17S1389.91,434.48,1389.88,434.4Z" transform="translate(-473.88 -170.02)"/><circle class="cls-5" cx="440.34" cy="511.24" r="24.08"/><circle class="cls-5" cx="845.76" cy="463.07" r="24.08"/><path class="cls-1" d="M1305.35,632.32c.71,20.46,30.45,19.13,29.55-1.63-3.22-73.86,4.81-144.11-33.32-268.54-15.92-51.94-78.27-194.68-214.75-182.64-127,11.2-214.75,146.51-187.75,494.72,2.11,27.17,24.24,18.12,27.65,11.63a15.67,15.67,0,0,0,1.45-10c-8.45-48.25-41-450.1,158.65-466.25C1312.79,191.34,1303.15,568.59,1305.35,632.32Z" transform="translate(-473.88 -170.02)"/><text class="cls-6" transform="matrix(0.99, -0.13, 0.13, 0.99, 492.21, 1018.46)">E</text><text class="cls-7" transform="translate(345.87 1255.5) rotate(-8.3)">KASSA</text></svg>